<svg width="1094" height="523" viewBox="0 0 1094 523" fill="none" xmlns="http://www.w3.org/2000/svg">
<path d="M14.6992 304.577L125.534 295.214" stroke="#1A578F" stroke-width="1.5"/>
<path d="M14.6992 304.577L99.6949 403.147" stroke="#1A578F" stroke-width="1.5"/>
<path d="M18.1152 476.873L126.684 494.331" stroke="#1A578F" stroke-width="1.5"/>
<path d="M18.1152 476.872L99.6961 403.146" stroke="#1A578F" stroke-width="1.5"/>
<path d="M18.114 476.873L14.6992 304.577" stroke="#1A578F" stroke-width="1.5"/>
<path d="M18.1152 476.873L204.59 480.087" stroke="#1A578F" stroke-width="1.5"/>
<path d="M18.1152 476.873L214.955 400.637" stroke="#1A578F" stroke-width="1.5"/>
<path d="M18.1152 476.872L125.536 295.214" stroke="#1A578F" stroke-width="1.5"/>
<path d="M125.535 295.214L224.565 291.227" stroke="#1A578F" stroke-width="1.5"/>
<path d="M125.535 295.214L99.6953 403.147" stroke="#1A578F" stroke-width="1.5"/>
<path d="M125.535 295.214L214.955 400.636" stroke="#1A578F" stroke-width="1.5"/>
<path d="M125.535 295.214L126.684 494.331" stroke="#1A578F" stroke-width="1.5"/>
<path d="M125.535 295.214L204.59 480.086" stroke="#1A578F" stroke-width="1.5"/>
<path d="M99.6953 403.146L126.684 494.331" stroke="#1A578F" stroke-width="1.5"/>
<path d="M99.6953 403.147L214.955 400.637" stroke="#1A578F" stroke-width="1.5"/>
<path d="M99.6953 403.146L204.59 480.086" stroke="#1A578F" stroke-width="1.5"/>
<path d="M126.684 494.331L204.589 480.087" stroke="#1A578F" stroke-width="1.5"/>
<path d="M126.684 494.331L214.954 400.637" stroke="#1A578F" stroke-width="1.5"/>
<path d="M224.564 291.226L326.869 288.944" stroke="#1A578F" stroke-width="1.5"/>
<path d="M224.565 291.227L214.955 400.636" stroke="#1A578F" stroke-width="1.5"/>
<path d="M224.564 291.227L325.352 405.822" stroke="#1A578F" stroke-width="1.5"/>
<path d="M224.564 291.227L99.6953 403.147" stroke="#1A578F" stroke-width="1.5"/>
<path d="M224.564 291.227L405.74 326.891" stroke="#1A578F" stroke-width="1.5"/>
<path d="M214.955 400.637L204.59 480.087" stroke="#1A578F" stroke-width="1.5"/>
<path d="M214.955 400.637L325.352 405.822" stroke="#1A578F" stroke-width="1.5"/>
<path d="M204.59 480.087L313.407 510.902" stroke="#1A578F" stroke-width="1.5"/>
<path d="M204.59 480.087L325.352 405.822" stroke="#1A578F" stroke-width="1.5"/>
<path d="M326.869 288.944L405.74 326.891" stroke="#1A578F" stroke-width="1.5"/>
<path d="M326.869 288.944L325.352 405.822" stroke="#1A578F" stroke-width="1.5"/>
<path d="M326.869 288.944L416.879 412.96" stroke="#1A578F" stroke-width="1.5"/>
<path d="M326.869 288.944L214.955 400.636" stroke="#1A578F" stroke-width="1.5"/>
<path d="M326.869 288.945L489.567 233.197" stroke="#1A578F" stroke-width="1.5"/>
<path d="M325.352 405.822L416.879 412.96" stroke="#1A578F" stroke-width="1.5"/>
<path d="M325.352 405.822L313.406 510.902" stroke="#1A578F" stroke-width="1.5"/>
<path d="M313.406 510.902L411.407 480.601" stroke="#1A578F" stroke-width="1.5"/>
<path d="M405.74 326.892L416.88 412.96" stroke="#1A578F" stroke-width="1.5"/>
<path d="M405.739 326.892L325.352 405.822" stroke="#1A578F" stroke-width="1.5"/>
<path d="M405.74 326.892L489.568 233.197" stroke="#1A578F" stroke-width="1.5"/>
<path d="M405.74 326.892L495.566 415.204" stroke="#1A578F" stroke-width="1.5"/>
<path d="M416.88 412.96L411.408 480.6" stroke="#1A578F" stroke-width="1.5"/>
<path d="M416.879 412.96L495.565 415.204" stroke="#1A578F" stroke-width="1.5"/>
<path d="M416.879 412.96L313.406 510.902" stroke="#1A578F" stroke-width="1.5"/>
<path d="M411.408 480.6L495.566 415.204" stroke="#1A578F" stroke-width="1.5"/>
<path d="M411.407 480.6L325.352 405.822" stroke="#1A578F" stroke-width="1.5"/>
<path d="M489.568 233.197L601.61 193.057" stroke="#1A578F" stroke-width="1.5"/>
<path d="M495.566 415.205L600.562 401.125" stroke="#1A578F" stroke-width="1.5"/>
<path d="M601.609 193.057L674.875 200.359" stroke="#1A578F" stroke-width="1.5"/>
<path d="M601.609 193.056L671.594 119.818" stroke="#1A578F" stroke-width="1.5"/>
<path d="M588.014 327.716L600.562 401.125" stroke="#1A578F" stroke-width="1.5"/>
<path d="M588.014 327.716L673.968 326.518" stroke="#1A578F" stroke-width="1.5"/>
<path d="M600.561 401.125L598.238 495.517" stroke="#1A578F" stroke-width="1.5"/>
<path d="M600.562 401.125L695.003 382.151" stroke="#1A578F" stroke-width="1.5"/>
<path d="M600.562 401.125L673.968 326.518" stroke="#1A578F" stroke-width="1.5"/>
<path d="M598.238 495.516L697.084 488.023" stroke="#1A578F" stroke-width="1.5"/>
<path d="M598.239 495.516L495.566 415.204" stroke="#1A578F" stroke-width="1.5"/>
<path d="M696.258 13.7881L776.563 11.582" stroke="#1A578F" stroke-width="1.5"/>
<path d="M696.259 13.7881L671.594 119.819" stroke="#1A578F" stroke-width="1.5"/>
<path d="M696.258 13.7881L782.79 134.843" stroke="#1A578F" stroke-width="1.5"/>
<path d="M696.258 13.7876L876.494 11.9365" stroke="#1A578F" stroke-width="1.5"/>
<path d="M696.259 13.7881L674.875 200.36" stroke="#1A578F" stroke-width="1.5"/>
<path d="M671.594 119.818L674.875 200.359" stroke="#1A578F" stroke-width="1.5"/>
<path d="M674.875 200.359L792.273 222.927" stroke="#1A578F" stroke-width="1.5"/>
<path d="M674.875 200.359L782.791 134.843" stroke="#1A578F" stroke-width="1.5"/>
<path d="M673.967 326.518L695.001 382.151" stroke="#1A578F" stroke-width="1.5"/>
<path d="M673.967 326.517L760.346 300.697" stroke="#1A578F" stroke-width="1.5"/>
<path d="M695.002 382.151L786.307 388.326" stroke="#1A578F" stroke-width="1.5"/>
<path d="M695.002 382.151L760.347 300.697" stroke="#1A578F" stroke-width="1.5"/>
<path d="M782.791 134.843L792.274 222.927" stroke="#1A578F" stroke-width="1.5"/>
<path d="M782.791 134.843L877.498 128.357" stroke="#1A578F" stroke-width="1.5"/>
<path d="M782.791 134.843L855.562 198.629" stroke="#1A578F" stroke-width="1.5"/>
<path d="M782.791 134.842L671.594 119.818" stroke="#1A578F" stroke-width="1.5"/>
<path d="M782.791 134.843L776.564 11.582" stroke="#1A578F" stroke-width="1.5"/>
<path d="M792.273 222.927L855.562 198.629" stroke="#1A578F" stroke-width="1.5"/>
<path d="M792.272 222.928L760.346 300.698" stroke="#1A578F" stroke-width="1.5"/>
<path d="M792.273 222.928L901.046 288.254" stroke="#1A578F" stroke-width="1.5"/>
<path d="M792.273 222.927L877.498 128.357" stroke="#1A578F" stroke-width="1.5"/>
<path d="M760.346 300.697L786.306 388.325" stroke="#1A578F" stroke-width="1.5"/>
<path d="M786.307 388.325L889.468 397.879" stroke="#1A578F" stroke-width="1.5"/>
<path d="M786.306 388.326L673.967 326.518" stroke="#1A578F" stroke-width="1.5"/>
<path d="M786.307 388.325L805.545 515.789" stroke="#1A578F" stroke-width="1.5"/>
<path d="M786.307 388.325L697.084 488.023" stroke="#1A578F" stroke-width="1.5"/>
<path d="M805.545 515.789L883.413 491.675" stroke="#1A578F" stroke-width="1.5"/>
<path d="M805.545 515.79L697.084 488.023" stroke="#1A578F" stroke-width="1.5"/>
<path d="M876.494 11.9372L959.122 3.16992" stroke="#1A578F" stroke-width="1.5"/>
<path d="M876.495 11.937L776.564 11.582" stroke="#1A578F" stroke-width="1.5"/>
<path d="M877.497 128.357L855.561 198.628" stroke="#1A578F" stroke-width="1.5"/>
<path d="M877.496 128.358L980.093 113.245" stroke="#1A578F" stroke-width="1.5"/>
<path d="M877.497 128.358L876.494 11.9365" stroke="#1A578F" stroke-width="1.5"/>
<path d="M855.561 198.629L901.045 288.254" stroke="#1A578F" stroke-width="1.5"/>
<path d="M855.561 198.629L977.021 191.161" stroke="#1A578F" stroke-width="1.5"/>
<path d="M901.045 288.254L973.295 317.015" stroke="#1A578F" stroke-width="1.5"/>
<path d="M889.469 397.879L968.27 426.78" stroke="#1A578F" stroke-width="1.5"/>
<path d="M889.467 397.879L883.412 491.675" stroke="#1A578F" stroke-width="1.5"/>
<path d="M889.469 397.879L901.046 288.254" stroke="#1A578F" stroke-width="1.5"/>
<path d="M889.469 397.879L973.296 317.015" stroke="#1A578F" stroke-width="1.5"/>
<path d="M883.412 491.675L980.08 518.737" stroke="#1A578F" stroke-width="1.5"/>
<path d="M883.412 491.675L968.268 426.779" stroke="#1A578F" stroke-width="1.5"/>
<path d="M883.413 491.675L786.307 388.325" stroke="#1A578F" stroke-width="1.5"/>
<path d="M959.123 3.16992L980.094 113.245" stroke="#1A578F" stroke-width="1.5"/>
<path d="M959.123 3.16992L1072.83 25.8012" stroke="#1A578F" stroke-width="1.5"/>
<path d="M959.121 3.16992L877.496 128.358" stroke="#1A578F" stroke-width="1.5"/>
<path d="M959.123 3.16992L1088.33 107.565" stroke="#1A578F" stroke-width="1.5"/>
<path d="M980.094 113.245L977.021 191.161" stroke="#1A578F" stroke-width="1.5"/>
<path d="M980.094 113.245L1088.33 107.565" stroke="#1A578F" stroke-width="1.5"/>
<path d="M980.094 113.245L1072.83 25.8008" stroke="#1A578F" stroke-width="1.5"/>
<path d="M977.02 191.161L877.496 128.357" stroke="#1A578F" stroke-width="1.5"/>
<path d="M977.021 191.161L901.045 288.254" stroke="#1A578F" stroke-width="1.5"/>
<path d="M973.295 317.015L1049.91 329.642" stroke="#1A578F" stroke-width="1.5"/>
<path d="M968.27 426.779L980.082 518.737" stroke="#1A578F" stroke-width="1.5"/>
<path d="M968.27 426.78L1058.79 403.286" stroke="#1A578F" stroke-width="1.5"/>
<path d="M968.27 426.779L973.296 317.015" stroke="#1A578F" stroke-width="1.5"/>
<path d="M980.08 518.737L1047.11 519.061" stroke="#1A578F" stroke-width="1.5"/>
<path d="M980.08 518.737L1058.79 403.286" stroke="#1A578F" stroke-width="1.5"/>
<path d="M980.082 518.737L889.469 397.879" stroke="#1A578F" stroke-width="1.5"/>
<path d="M980.081 518.738L805.545 515.79" stroke="#1A578F" stroke-width="1.5"/>
<path d="M1072.83 25.8008L1088.33 107.565" stroke="#1A578F" stroke-width="1.5"/>
<path d="M1088.33 107.565L977.021 191.162" stroke="#1A578F" stroke-width="1.5"/>
<path d="M1088.33 107.565L877.496 128.358" stroke="#1A578F" stroke-width="1.5"/>
<path d="M1088.33 107.565L1049.91 329.643" stroke="#1A578F" stroke-width="1.5"/>
<path d="M1049.91 329.643L1058.79 403.286" stroke="#1A578F" stroke-width="1.5"/>
<path d="M1049.91 329.643L968.27 426.779" stroke="#1A578F" stroke-width="1.5"/>
<path d="M1049.91 329.643L901.045 288.254" stroke="#1A578F" stroke-width="1.5"/>
<path d="M1049.91 329.643L977.021 191.161" stroke="#1A578F" stroke-width="1.5"/>
<path d="M1049.91 329.643L889.469 397.879" stroke="#1A578F" stroke-width="1.5"/>
<path d="M1047.11 519.061L1058.79 403.286" stroke="#1A578F" stroke-width="1.5"/>
<path d="M1047.11 519.06L968.27 426.779" stroke="#1A578F" stroke-width="1.5"/>
<path d="M1047.11 519.061L883.412 491.675" stroke="#1A578F" stroke-width="1.5"/>
<path d="M1047.11 519.06L1049.91 329.643" stroke="#1A578F" stroke-width="1.5"/>
<path d="M1047.11 519.061L889.469 397.879" stroke="#1A578F" stroke-width="1.5"/>
<path d="M14.701 307.747C16.4537 307.747 17.8746 306.328 17.8746 304.578C17.8746 302.827 16.4537 301.408 14.701 301.408C12.9482 301.408 11.5273 302.827 11.5273 304.578C11.5273 306.328 12.9482 307.747 14.701 307.747Z" fill="#1A578F"/>
<path d="M18.115 480.042C19.8678 480.042 21.2886 478.623 21.2886 476.873C21.2886 475.122 19.8678 473.703 18.115 473.703C16.3623 473.703 14.9414 475.122 14.9414 476.873C14.9414 478.623 16.3623 480.042 18.115 480.042Z" fill="#1A578F"/>
<path d="M125.535 298.384C127.288 298.384 128.709 296.965 128.709 295.215C128.709 293.464 127.288 292.045 125.535 292.045C123.782 292.045 122.361 293.464 122.361 295.215C122.361 296.965 123.782 298.384 125.535 298.384Z" fill="#1A578F"/>
<path d="M99.6951 406.317C101.448 406.317 102.869 404.898 102.869 403.147C102.869 401.397 101.448 399.978 99.6951 399.978C97.9424 399.978 96.5215 401.397 96.5215 403.147C96.5215 404.898 97.9424 406.317 99.6951 406.317Z" fill="#1A578F"/>
<path d="M126.683 497.5C128.436 497.5 129.857 496.081 129.857 494.331C129.857 492.58 128.436 491.161 126.683 491.161C124.931 491.161 123.51 492.58 123.51 494.331C123.51 496.081 124.931 497.5 126.683 497.5Z" fill="#1A578F"/>
<path d="M224.564 294.396C226.317 294.396 227.738 292.977 227.738 291.226C227.738 289.476 226.317 288.057 224.564 288.057C222.811 288.057 221.391 289.476 221.391 291.226C221.391 292.977 222.811 294.396 224.564 294.396Z" fill="#1A578F"/>
<path d="M214.955 403.806C216.708 403.806 218.128 402.387 218.128 400.636C218.128 398.886 216.708 397.467 214.955 397.467C213.202 397.467 211.781 398.886 211.781 400.636C211.781 402.387 213.202 403.806 214.955 403.806Z" fill="#1A578F"/>
<path d="M204.59 483.256C206.342 483.256 207.763 481.837 207.763 480.087C207.763 478.336 206.342 476.917 204.59 476.917C202.837 476.917 201.416 478.336 201.416 480.087C201.416 481.837 202.837 483.256 204.59 483.256Z" fill="#1A578F"/>
<path d="M326.869 292.115C328.622 292.115 330.043 290.696 330.043 288.945C330.043 287.194 328.622 285.775 326.869 285.775C325.116 285.775 323.695 287.194 323.695 288.945C323.695 290.696 325.116 292.115 326.869 292.115Z" fill="#1A578F"/>
<path d="M325.351 408.992C327.104 408.992 328.525 407.573 328.525 405.822C328.525 404.071 327.104 402.652 325.351 402.652C323.599 402.652 322.178 404.071 322.178 405.822C322.178 407.573 323.599 408.992 325.351 408.992Z" fill="#1A578F"/>
<path d="M313.406 514.072C315.159 514.072 316.58 512.653 316.58 510.902C316.58 509.152 315.159 507.732 313.406 507.732C311.653 507.732 310.232 509.152 310.232 510.902C310.232 512.653 311.653 514.072 313.406 514.072Z" fill="#1A578F"/>
<path d="M405.74 330.061C407.493 330.061 408.914 328.642 408.914 326.891C408.914 325.141 407.493 323.722 405.74 323.722C403.987 323.722 402.566 325.141 402.566 326.891C402.566 328.642 403.987 330.061 405.74 330.061Z" fill="#1A578F"/>
<path d="M416.879 416.129C418.631 416.129 420.052 414.71 420.052 412.96C420.052 411.209 418.631 409.79 416.879 409.79C415.126 409.79 413.705 411.209 413.705 412.96C413.705 414.71 415.126 416.129 416.879 416.129Z" fill="#1A578F"/>
<path d="M411.408 483.77C413.161 483.77 414.582 482.351 414.582 480.6C414.582 478.85 413.161 477.431 411.408 477.431C409.655 477.431 408.234 478.85 408.234 480.6C408.234 482.351 409.655 483.77 411.408 483.77Z" fill="#1A578F"/>
<path d="M489.568 236.367C491.321 236.367 492.742 234.948 492.742 233.197C492.742 231.446 491.321 230.027 489.568 230.027C487.815 230.027 486.395 231.446 486.395 233.197C486.395 234.948 487.815 236.367 489.568 236.367Z" fill="#1A578F"/>
<path d="M495.566 418.373C497.319 418.373 498.74 416.954 498.74 415.204C498.74 413.453 497.319 412.034 495.566 412.034C493.813 412.034 492.393 413.453 492.393 415.204C492.393 416.954 493.813 418.373 495.566 418.373Z" fill="#1A578F"/>
<path d="M601.609 196.226C603.362 196.226 604.783 194.807 604.783 193.056C604.783 191.306 603.362 189.887 601.609 189.887C599.856 189.887 598.436 191.306 598.436 193.056C598.436 194.807 599.856 196.226 601.609 196.226Z" fill="#1A578F"/>
<path d="M588.013 330.885C589.766 330.885 591.187 329.466 591.187 327.716C591.187 325.965 589.766 324.546 588.013 324.546C586.261 324.546 584.84 325.965 584.84 327.716C584.84 329.466 586.261 330.885 588.013 330.885Z" fill="#1A578F"/>
<path d="M600.562 404.294C602.315 404.294 603.736 402.875 603.736 401.125C603.736 399.374 602.315 397.955 600.562 397.955C598.81 397.955 597.389 399.374 597.389 401.125C597.389 402.875 598.81 404.294 600.562 404.294Z" fill="#1A578F"/>
<path d="M598.238 498.686C599.991 498.686 601.412 497.267 601.412 495.516C601.412 493.766 599.991 492.347 598.238 492.347C596.485 492.347 595.064 493.766 595.064 495.516C595.064 497.267 596.485 498.686 598.238 498.686Z" fill="#1A578F"/>
<path d="M696.26 16.9574C698.012 16.9574 699.433 15.5384 699.433 13.7878C699.433 12.0373 698.012 10.6182 696.26 10.6182C694.507 10.6182 693.086 12.0373 693.086 13.7878C693.086 15.5384 694.507 16.9574 696.26 16.9574Z" fill="#1A578F"/>
<path d="M671.594 122.989C673.346 122.989 674.767 121.57 674.767 119.819C674.767 118.069 673.346 116.649 671.594 116.649C669.841 116.649 668.42 118.069 668.42 119.819C668.42 121.57 669.841 122.989 671.594 122.989Z" fill="#1A578F"/>
<path d="M674.875 203.529C676.628 203.529 678.048 202.11 678.048 200.359C678.048 198.609 676.628 197.189 674.875 197.189C673.122 197.189 671.701 198.609 671.701 200.359C671.701 202.11 673.122 203.529 674.875 203.529Z" fill="#1A578F"/>
<path d="M673.967 329.687C675.719 329.687 677.14 328.268 677.14 326.517C677.14 324.767 675.719 323.348 673.967 323.348C672.214 323.348 670.793 324.767 670.793 326.517C670.793 328.268 672.214 329.687 673.967 329.687Z" fill="#1A578F"/>
<path d="M695.002 385.321C696.754 385.321 698.175 383.902 698.175 382.151C698.175 380.401 696.754 378.981 695.002 378.981C693.249 378.981 691.828 380.401 691.828 382.151C691.828 383.902 693.249 385.321 695.002 385.321Z" fill="#1A578F"/>
<path d="M697.084 491.193C698.837 491.193 700.257 489.774 700.257 488.023C700.257 486.273 698.837 484.854 697.084 484.854C695.331 484.854 693.91 486.273 693.91 488.023C693.91 489.774 695.331 491.193 697.084 491.193Z" fill="#1A578F"/>
<path d="M776.564 14.7514C778.317 14.7514 779.738 13.3323 779.738 11.5818C779.738 9.83121 778.317 8.41211 776.564 8.41211C774.811 8.41211 773.391 9.83121 773.391 11.5818C773.391 13.3323 774.811 14.7514 776.564 14.7514Z" fill="#1A578F"/>
<path d="M782.791 138.012C784.544 138.012 785.964 136.593 785.964 134.842C785.964 133.092 784.544 131.673 782.791 131.673C781.038 131.673 779.617 133.092 779.617 134.842C779.617 136.593 781.038 138.012 782.791 138.012Z" fill="#1A578F"/>
<path d="M792.273 226.097C794.026 226.097 795.447 224.678 795.447 222.927C795.447 221.177 794.026 219.758 792.273 219.758C790.52 219.758 789.1 221.177 789.1 222.927C789.1 224.678 790.52 226.097 792.273 226.097Z" fill="#1A578F"/>
<path d="M760.345 303.868C762.098 303.868 763.519 302.449 763.519 300.698C763.519 298.947 762.098 297.528 760.345 297.528C758.593 297.528 757.172 298.947 757.172 300.698C757.172 302.449 758.593 303.868 760.345 303.868Z" fill="#1A578F"/>
<path d="M786.306 391.496C788.059 391.496 789.48 390.076 789.48 388.326C789.48 386.575 788.059 385.156 786.306 385.156C784.554 385.156 783.133 386.575 783.133 388.326C783.133 390.076 784.554 391.496 786.306 391.496Z" fill="#1A578F"/>
<path d="M805.545 518.959C807.297 518.959 808.718 517.54 808.718 515.79C808.718 514.039 807.297 512.62 805.545 512.62C803.792 512.62 802.371 514.039 802.371 515.79C802.371 517.54 803.792 518.959 805.545 518.959Z" fill="#1A578F"/>
<path d="M876.494 15.1069C878.247 15.1069 879.668 13.6878 879.668 11.9372C879.668 10.1867 878.247 8.76758 876.494 8.76758C874.741 8.76758 873.32 10.1867 873.32 11.9372C873.32 13.6878 874.741 15.1069 876.494 15.1069Z" fill="#1A578F"/>
<path d="M877.498 131.528C879.251 131.528 880.671 130.109 880.671 128.358C880.671 126.608 879.251 125.188 877.498 125.188C875.745 125.188 874.324 126.608 874.324 128.358C874.324 130.109 875.745 131.528 877.498 131.528Z" fill="#1A578F"/>
<path d="M855.56 201.798C857.313 201.798 858.734 200.379 858.734 198.629C858.734 196.878 857.313 195.459 855.56 195.459C853.808 195.459 852.387 196.878 852.387 198.629C852.387 200.379 853.808 201.798 855.56 201.798Z" fill="#1A578F"/>
<path d="M901.045 291.423C902.797 291.423 904.218 290.004 904.218 288.254C904.218 286.503 902.797 285.084 901.045 285.084C899.292 285.084 897.871 286.503 897.871 288.254C897.871 290.004 899.292 291.423 901.045 291.423Z" fill="#1A578F"/>
<path d="M889.469 401.048C891.221 401.048 892.642 399.629 892.642 397.879C892.642 396.128 891.221 394.709 889.469 394.709C887.716 394.709 886.295 396.128 886.295 397.879C886.295 399.629 887.716 401.048 889.469 401.048Z" fill="#1A578F"/>
<path d="M883.412 494.845C885.165 494.845 886.586 493.426 886.586 491.676C886.586 489.925 885.165 488.506 883.412 488.506C881.659 488.506 880.238 489.925 880.238 491.676C880.238 493.426 881.659 494.845 883.412 494.845Z" fill="#1A578F"/>
<path d="M959.123 6.33929C960.876 6.33929 962.296 4.92019 962.296 3.16964C962.296 1.4191 960.876 0 959.123 0C957.37 0 955.949 1.4191 955.949 3.16964C955.949 4.92019 957.37 6.33929 959.123 6.33929Z" fill="#1A578F"/>
<path d="M980.094 116.414C981.846 116.414 983.267 114.995 983.267 113.245C983.267 111.494 981.846 110.075 980.094 110.075C978.341 110.075 976.92 111.494 976.92 113.245C976.92 114.995 978.341 116.414 980.094 116.414Z" fill="#1A578F"/>
<path d="M977.021 194.33C978.774 194.33 980.195 192.911 980.195 191.161C980.195 189.41 978.774 187.991 977.021 187.991C975.269 187.991 973.848 189.41 973.848 191.161C973.848 192.911 975.269 194.33 977.021 194.33Z" fill="#1A578F"/>
<path d="M973.295 320.185C975.047 320.185 976.468 318.766 976.468 317.015C976.468 315.265 975.047 313.846 973.295 313.846C971.542 313.846 970.121 315.265 970.121 317.015C970.121 318.766 971.542 320.185 973.295 320.185Z" fill="#1A578F"/>
<path d="M968.269 429.95C970.022 429.95 971.443 428.531 971.443 426.78C971.443 425.029 970.022 423.61 968.269 423.61C966.517 423.61 965.096 425.029 965.096 426.78C965.096 428.531 966.517 429.95 968.269 429.95Z" fill="#1A578F"/>
<path d="M980.082 521.907C981.835 521.907 983.255 520.488 983.255 518.737C983.255 516.986 981.835 515.567 980.082 515.567C978.329 515.567 976.908 516.986 976.908 518.737C976.908 520.488 978.329 521.907 980.082 521.907Z" fill="#1A578F"/>
<path d="M1072.83 28.9701C1074.58 28.9701 1076 27.551 1076 25.8005C1076 24.05 1074.58 22.6309 1072.83 22.6309C1071.07 22.6309 1069.65 24.05 1069.65 25.8005C1069.65 27.551 1071.07 28.9701 1072.83 28.9701Z" fill="#1A578F"/>
<path d="M1088.33 110.735C1090.09 110.735 1091.51 109.316 1091.51 107.565C1091.51 105.815 1090.09 104.396 1088.33 104.396C1086.58 104.396 1085.16 105.815 1085.16 107.565C1085.16 109.316 1086.58 110.735 1088.33 110.735Z" fill="#1A578F"/>
<path d="M1049.91 332.813C1051.67 332.813 1053.09 331.394 1053.09 329.643C1053.09 327.893 1051.67 326.474 1049.91 326.474C1048.16 326.474 1046.74 327.893 1046.74 329.643C1046.74 331.394 1048.16 332.813 1049.91 332.813Z" fill="#1A578F"/>
<path d="M1058.79 406.456C1060.55 406.456 1061.97 405.037 1061.97 403.287C1061.97 401.536 1060.55 400.117 1058.79 400.117C1057.04 400.117 1055.62 401.536 1055.62 403.287C1055.62 405.037 1057.04 406.456 1058.79 406.456Z" fill="#1A578F"/>
<path d="M1047.11 522.23C1048.86 522.23 1050.28 520.811 1050.28 519.06C1050.28 517.31 1048.86 515.891 1047.11 515.891C1045.35 515.891 1043.93 517.31 1043.93 519.06C1043.93 520.811 1045.35 522.23 1047.11 522.23Z" fill="#1A578F"/>
<path d="M388.539 424.891L326.533 381.904" stroke="#1A578F" stroke-width="1.5"/>
<path d="M388.539 424.891L421.284 494.597" stroke="#1A578F" stroke-width="1.5"/>
<path d="M421.285 494.598L487.1 478.445" stroke="#1A578F" stroke-width="1.5"/>
<path d="M421.284 494.598L305.377 509.146" stroke="#1A578F" stroke-width="1.5"/>
<path d="M421.285 494.597L503.786 394.531" stroke="#1A578F" stroke-width="1.5"/>
<path d="M421.285 494.598L326.533 381.904" stroke="#1A578F" stroke-width="1.5"/>
<path d="M798.131 321.148L874.774 292.875" stroke="#1A578F" stroke-width="1.5"/>
<path d="M798.131 321.148L764.738 211.143" stroke="#1A578F" stroke-width="1.5"/>
<path d="M798.132 321.148L705.189 405.112" stroke="#1A578F" stroke-width="1.5"/>
<path d="M798.131 321.148L880.6 416.269" stroke="#1A578F" stroke-width="1.5"/>
<path d="M798.132 321.148L666.973 315.544" stroke="#1A578F" stroke-width="1.5"/>
<path d="M798.131 321.148L785.627 494.388" stroke="#1A578F" stroke-width="1.5"/>
<path d="M785.627 494.389L879.509 496.164" stroke="#1A578F" stroke-width="1.5"/>
<path d="M785.628 494.389L685.291 504.665" stroke="#1A578F" stroke-width="1.5"/>
<path d="M785.628 494.388L705.189 405.112" stroke="#1A578F" stroke-width="1.5"/>
<path d="M785.627 494.389L880.6 416.27" stroke="#1A578F" stroke-width="1.5"/>
<path d="M882.27 127.578L893.777 25.5215" stroke="#1A578F" stroke-width="1.5"/>
<path d="M882.27 127.578L992.756 118.12" stroke="#1A578F" stroke-width="1.5"/>
<path d="M882.269 127.578L802.148 35.2783" stroke="#1A578F" stroke-width="1.5"/>
<path d="M3.17383 415.705L7.02024 507.663" stroke="#1A578F" stroke-width="1.5"/>
<path d="M7.01953 507.662L100.565 489.652" stroke="#1A578F" stroke-width="1.5"/>
<path d="M7.01953 507.662L113.285 426.792" stroke="#1A578F" stroke-width="1.5"/>
<path d="M7.01953 507.663L223.79 484.423" stroke="#1A578F" stroke-width="1.5"/>
<path d="M113.286 426.792L100.566 489.652" stroke="#1A578F" stroke-width="1.5"/>
<path d="M113.285 426.792L3.17383 415.705" stroke="#1A578F" stroke-width="1.5"/>
<path d="M113.285 426.792L227.84 397.182" stroke="#1A578F" stroke-width="1.5"/>
<path d="M113.285 426.792L223.79 484.422" stroke="#1A578F" stroke-width="1.5"/>
<path d="M227.841 397.182L223.791 484.423" stroke="#1A578F" stroke-width="1.5"/>
<path d="M227.84 397.182L326.533 381.904" stroke="#1A578F" stroke-width="1.5"/>
<path d="M223.791 484.423L305.378 509.146" stroke="#1A578F" stroke-width="1.5"/>
<path d="M223.791 484.423L100.566 489.653" stroke="#1A578F" stroke-width="1.5"/>
<path d="M223.791 484.423L326.534 381.904" stroke="#1A578F" stroke-width="1.5"/>
<path d="M223.791 484.423L388.54 424.891" stroke="#1A578F" stroke-width="1.5"/>
<path d="M326.532 381.904L305.377 509.146" stroke="#1A578F" stroke-width="1.5"/>
<path d="M305.377 509.146L388.538 424.891" stroke="#1A578F" stroke-width="1.5"/>
<path d="M503.784 394.531L487.098 478.444" stroke="#1A578F" stroke-width="1.5"/>
<path d="M600.676 320.374L666.973 315.544" stroke="#1A578F" stroke-width="1.5"/>
<path d="M600.675 320.375L594.658 391.495" stroke="#1A578F" stroke-width="1.5"/>
<path d="M600.676 320.375L503.785 394.532" stroke="#1A578F" stroke-width="1.5"/>
<path d="M600.676 320.375L705.189 405.112" stroke="#1A578F" stroke-width="1.5"/>
<path d="M600.676 320.375L600.219 510.604" stroke="#1A578F" stroke-width="1.5"/>
<path d="M600.675 320.375L487.098 478.445" stroke="#1A578F" stroke-width="1.5"/>
<path d="M594.658 391.495L503.785 394.532" stroke="#1A578F" stroke-width="1.5"/>
<path d="M594.658 391.495L666.972 315.544" stroke="#1A578F" stroke-width="1.5"/>
<path d="M594.658 391.495L705.189 405.112" stroke="#1A578F" stroke-width="1.5"/>
<path d="M594.658 391.495L600.218 510.604" stroke="#1A578F" stroke-width="1.5"/>
<path d="M600.219 510.604L685.291 504.664" stroke="#1A578F" stroke-width="1.5"/>
<path d="M600.218 510.605L487.098 478.445" stroke="#1A578F" stroke-width="1.5"/>
<path d="M600.219 510.604L705.189 405.112" stroke="#1A578F" stroke-width="1.5"/>
<path d="M600.219 510.604L503.785 394.531" stroke="#1A578F" stroke-width="1.5"/>
<path d="M600.22 510.604L421.285 494.598" stroke="#1A578F" stroke-width="1.5"/>
<path d="M705.189 405.112L666.973 315.544" stroke="#1A578F" stroke-width="1.5"/>
<path d="M705.19 405.112L685.291 504.664" stroke="#1A578F" stroke-width="1.5"/>
<path d="M802.148 35.2776L893.777 25.5215" stroke="#1A578F" stroke-width="1.5"/>
<path d="M802.148 35.2785L971.841 24.2861" stroke="#1A578F" stroke-width="1.5"/>
<path d="M764.738 211.143L874.774 292.875" stroke="#1A578F" stroke-width="1.5"/>
<path d="M764.739 211.143L666.973 315.544" stroke="#1A578F" stroke-width="1.5"/>
<path d="M764.738 211.143L882.27 127.578" stroke="#1A578F" stroke-width="1.5"/>
<path d="M893.777 25.5223L971.842 24.2861" stroke="#1A578F" stroke-width="1.5"/>
<path d="M893.777 25.5215L992.756 118.119" stroke="#1A578F" stroke-width="1.5"/>
<path d="M893.777 25.5215L1047.7 119.47" stroke="#1A578F" stroke-width="1.5"/>
<path d="M893.777 25.5221L1089.92 24.8691" stroke="#1A578F" stroke-width="1.5"/>
<path d="M874.773 292.875L994.177 309.592" stroke="#1A578F" stroke-width="1.5"/>
<path d="M880.602 416.27L955.822 424.073" stroke="#1A578F" stroke-width="1.5"/>
<path d="M880.601 416.27L879.51 496.164" stroke="#1A578F" stroke-width="1.5"/>
<path d="M880.6 416.269L874.773 292.875" stroke="#1A578F" stroke-width="1.5"/>
<path d="M971.842 24.2861L992.756 118.12" stroke="#1A578F" stroke-width="1.5"/>
<path d="M971.842 24.2861L1089.92 24.8693" stroke="#1A578F" stroke-width="1.5"/>
<path d="M971.842 24.2861L1047.7 119.471" stroke="#1A578F" stroke-width="1.5"/>
<path d="M992.756 118.12L1047.7 119.47" stroke="#1A578F" stroke-width="1.5"/>
<path d="M992.756 118.12L993.226 207.39" stroke="#1A578F" stroke-width="1.5"/>
<path d="M992.756 118.12L1089.92 24.8691" stroke="#1A578F" stroke-width="1.5"/>
<path d="M993.227 207.39L1073.82 227.999" stroke="#1A578F" stroke-width="1.5"/>
<path d="M993.227 207.39L994.179 309.592" stroke="#1A578F" stroke-width="1.5"/>
<path d="M993.227 207.39L1047.7 119.471" stroke="#1A578F" stroke-width="1.5"/>
<path d="M993.227 207.39L1089.16 298.625" stroke="#1A578F" stroke-width="1.5"/>
<path d="M994.178 309.592L1089.16 298.625" stroke="#1A578F" stroke-width="1.5"/>
<path d="M994.178 309.592L1073.82 227.999" stroke="#1A578F" stroke-width="1.5"/>
<path d="M994.178 309.592L955.822 424.073" stroke="#1A578F" stroke-width="1.5"/>
<path d="M955.822 424.073L975.867 512.158" stroke="#1A578F" stroke-width="1.5"/>
<path d="M955.822 424.073L879.51 496.164" stroke="#1A578F" stroke-width="1.5"/>
<path d="M955.822 424.073L1057.94 514.573" stroke="#1A578F" stroke-width="1.5"/>
<path d="M975.867 512.157L1057.94 514.573" stroke="#1A578F" stroke-width="1.5"/>
<path d="M975.867 512.157L879.51 496.163" stroke="#1A578F" stroke-width="1.5"/>
<path d="M975.867 512.158L880.602 416.27" stroke="#1A578F" stroke-width="1.5"/>
<path d="M1089.92 24.8691L1047.7 119.47" stroke="#1A578F" stroke-width="1.5"/>
<path d="M1047.7 119.471L1073.82 227.999" stroke="#1A578F" stroke-width="1.5"/>
<path d="M1047.7 119.471L882.27 127.579" stroke="#1A578F" stroke-width="1.5"/>
<path d="M1073.82 227.999L1089.16 298.625" stroke="#1A578F" stroke-width="1.5"/>
<path d="M1057.94 514.572L879.51 496.163" stroke="#1A578F" stroke-width="1.5"/>
<path d="M1057.94 514.573L880.602 416.27" stroke="#1A578F" stroke-width="1.5"/>
<path d="M388.538 440.738C397.302 440.738 404.406 433.643 404.406 424.89C404.406 416.137 397.302 409.042 388.538 409.042C379.774 409.042 372.67 416.137 372.67 424.89C372.67 433.643 379.774 440.738 388.538 440.738Z" fill="url(#paint0_radial_50_2241)" fill-opacity="0.4"/>
<path d="M421.284 510.445C430.048 510.445 437.152 503.35 437.152 494.597C437.152 485.845 430.048 478.749 421.284 478.749C412.52 478.749 405.416 485.845 405.416 494.597C405.416 503.35 412.52 510.445 421.284 510.445Z" fill="url(#paint1_radial_50_2241)" fill-opacity="0.4"/>
<path d="M798.132 336.996C806.895 336.996 814 329.901 814 321.148C814 312.395 806.895 305.3 798.132 305.3C789.368 305.3 782.264 312.395 782.264 321.148C782.264 329.901 789.368 336.996 798.132 336.996Z" fill="url(#paint2_radial_50_2241)" fill-opacity="0.4"/>
<path d="M785.628 510.236C794.392 510.236 801.496 503.141 801.496 494.388C801.496 485.636 794.392 478.54 785.628 478.54C776.864 478.54 769.76 485.636 769.76 494.388C769.76 503.141 776.864 510.236 785.628 510.236Z" fill="url(#paint3_radial_50_2241)" fill-opacity="0.4"/>
<path d="M882.27 143.426C891.034 143.426 898.138 136.33 898.138 127.578C898.138 118.825 891.034 111.729 882.27 111.729C873.507 111.729 866.402 118.825 866.402 127.578C866.402 136.33 873.507 143.426 882.27 143.426Z" fill="url(#paint4_radial_50_2241)" fill-opacity="0.4"/>
<path d="M3.17361 418.874C4.92635 418.874 6.34722 417.455 6.34722 415.705C6.34722 413.954 4.92635 412.535 3.17361 412.535C1.42087 412.535 0 413.954 0 415.705C0 417.455 1.42087 418.874 3.17361 418.874Z" fill="#1A578F"/>
<path d="M7.01931 510.832C8.77205 510.832 10.1929 509.413 10.1929 507.663C10.1929 505.912 8.77205 504.493 7.01931 504.493C5.26658 504.493 3.8457 505.912 3.8457 507.663C3.8457 509.413 5.26658 510.832 7.01931 510.832Z" fill="#1A578F"/>
<path d="M113.285 429.962C115.038 429.962 116.459 428.543 116.459 426.793C116.459 425.042 115.038 423.623 113.285 423.623C111.532 423.623 110.111 425.042 110.111 426.793C110.111 428.543 111.532 429.962 113.285 429.962Z" fill="#1A578F"/>
<path d="M100.566 492.823C102.319 492.823 103.74 491.404 103.74 489.653C103.74 487.902 102.319 486.483 100.566 486.483C98.8135 486.483 97.3926 487.902 97.3926 489.653C97.3926 491.404 98.8135 492.823 100.566 492.823Z" fill="#1A578F"/>
<path d="M227.84 400.351C229.592 400.351 231.013 398.932 231.013 397.181C231.013 395.431 229.592 394.012 227.84 394.012C226.087 394.012 224.666 395.431 224.666 397.181C224.666 398.932 226.087 400.351 227.84 400.351Z" fill="#1A578F"/>
<path d="M223.791 487.592C225.544 487.592 226.964 486.173 226.964 484.423C226.964 482.672 225.544 481.253 223.791 481.253C222.038 481.253 220.617 482.672 220.617 484.423C220.617 486.173 222.038 487.592 223.791 487.592Z" fill="#1A578F"/>
<path d="M326.533 385.074C328.286 385.074 329.707 383.655 329.707 381.904C329.707 380.153 328.286 378.734 326.533 378.734C324.78 378.734 323.359 380.153 323.359 381.904C323.359 383.655 324.78 385.074 326.533 385.074Z" fill="#1A578F"/>
<path d="M305.377 512.316C307.129 512.316 308.55 510.897 308.55 509.146C308.55 507.396 307.129 505.977 305.377 505.977C303.624 505.977 302.203 507.396 302.203 509.146C302.203 510.897 303.624 512.316 305.377 512.316Z" fill="#1A578F"/>
<path d="M503.785 397.702C505.538 397.702 506.959 396.282 506.959 394.532C506.959 392.781 505.538 391.362 503.785 391.362C502.032 391.362 500.611 392.781 500.611 394.532C500.611 396.282 502.032 397.702 503.785 397.702Z" fill="#1A578F"/>
<path d="M487.099 481.615C488.852 481.615 490.273 480.196 490.273 478.445C490.273 476.694 488.852 475.275 487.099 475.275C485.347 475.275 483.926 476.694 483.926 478.445C483.926 480.196 485.347 481.615 487.099 481.615Z" fill="#1A578F"/>
<path d="M600.676 323.544C602.428 323.544 603.849 322.125 603.849 320.375C603.849 318.624 602.428 317.205 600.676 317.205C598.923 317.205 597.502 318.624 597.502 320.375C597.502 322.125 598.923 323.544 600.676 323.544Z" fill="#1A578F"/>
<path d="M594.658 394.664C596.411 394.664 597.832 393.245 597.832 391.495C597.832 389.744 596.411 388.325 594.658 388.325C592.905 388.325 591.484 389.744 591.484 391.495C591.484 393.245 592.905 394.664 594.658 394.664Z" fill="#1A578F"/>
<path d="M600.219 513.774C601.971 513.774 603.392 512.355 603.392 510.604C603.392 508.854 601.971 507.435 600.219 507.435C598.466 507.435 597.045 508.854 597.045 510.604C597.045 512.355 598.466 513.774 600.219 513.774Z" fill="#1A578F"/>
<path d="M666.972 318.714C668.725 318.714 670.146 317.295 670.146 315.545C670.146 313.794 668.725 312.375 666.972 312.375C665.22 312.375 663.799 313.794 663.799 315.545C663.799 317.295 665.22 318.714 666.972 318.714Z" fill="#1A578F"/>
<path d="M705.189 408.282C706.942 408.282 708.363 406.863 708.363 405.112C708.363 403.361 706.942 401.942 705.189 401.942C703.436 401.942 702.016 403.361 702.016 405.112C702.016 406.863 703.436 408.282 705.189 408.282Z" fill="#1A578F"/>
<path d="M685.291 507.833C687.044 507.833 688.464 506.414 688.464 504.664C688.464 502.913 687.044 501.494 685.291 501.494C683.538 501.494 682.117 502.913 682.117 504.664C682.117 506.414 683.538 507.833 685.291 507.833Z" fill="#1A578F"/>
<path d="M802.15 38.4477C803.903 38.4477 805.324 37.0286 805.324 35.278C805.324 33.5275 803.903 32.1084 802.15 32.1084C800.397 32.1084 798.977 33.5275 798.977 35.278C798.977 37.0286 800.397 38.4477 802.15 38.4477Z" fill="#1A578F"/>
<path d="M764.738 214.312C766.491 214.312 767.912 212.893 767.912 211.142C767.912 209.392 766.491 207.973 764.738 207.973C762.985 207.973 761.564 209.392 761.564 211.142C761.564 212.893 762.985 214.312 764.738 214.312Z" fill="#1A578F"/>
<path d="M893.777 28.6918C895.53 28.6918 896.951 27.2727 896.951 25.5222C896.951 23.7716 895.53 22.3525 893.777 22.3525C892.024 22.3525 890.604 23.7716 890.604 25.5222C890.604 27.2727 892.024 28.6918 893.777 28.6918Z" fill="#1A578F"/>
<path d="M874.773 296.044C876.526 296.044 877.947 294.625 877.947 292.875C877.947 291.124 876.526 289.705 874.773 289.705C873.02 289.705 871.6 291.124 871.6 292.875C871.6 294.625 873.02 296.044 874.773 296.044Z" fill="#1A578F"/>
<path d="M880.601 419.439C882.354 419.439 883.775 418.02 883.775 416.269C883.775 414.519 882.354 413.1 880.601 413.1C878.849 413.1 877.428 414.519 877.428 416.269C877.428 418.02 878.849 419.439 880.601 419.439Z" fill="#1A578F"/>
<path d="M879.51 499.332C881.262 499.332 882.683 497.913 882.683 496.163C882.683 494.412 881.262 492.993 879.51 492.993C877.757 492.993 876.336 494.412 876.336 496.163C876.336 497.913 877.757 499.332 879.51 499.332Z" fill="#1A578F"/>
<path d="M971.842 27.4555C973.594 27.4555 975.015 26.0364 975.015 24.2859C975.015 22.5353 973.594 21.1162 971.842 21.1162C970.089 21.1162 968.668 22.5353 968.668 24.2859C968.668 26.0364 970.089 27.4555 971.842 27.4555Z" fill="#1A578F"/>
<path d="M992.756 121.289C994.508 121.289 995.929 119.87 995.929 118.12C995.929 116.369 994.508 114.95 992.756 114.95C991.003 114.95 989.582 116.369 989.582 118.12C989.582 119.87 991.003 121.289 992.756 121.289Z" fill="#1A578F"/>
<path d="M993.226 210.559C994.979 210.559 996.4 209.14 996.4 207.389C996.4 205.639 994.979 204.22 993.226 204.22C991.474 204.22 990.053 205.639 990.053 207.389C990.053 209.14 991.474 210.559 993.226 210.559Z" fill="#1A578F"/>
<path d="M994.178 312.761C995.93 312.761 997.351 311.342 997.351 309.592C997.351 307.841 995.93 306.422 994.178 306.422C992.425 306.422 991.004 307.841 991.004 309.592C991.004 311.342 992.425 312.761 994.178 312.761Z" fill="#1A578F"/>
<path d="M955.822 427.243C957.575 427.243 958.996 425.824 958.996 424.073C958.996 422.322 957.575 420.903 955.822 420.903C954.069 420.903 952.648 422.322 952.648 424.073C952.648 425.824 954.069 427.243 955.822 427.243Z" fill="#1A578F"/>
<path d="M975.867 515.327C977.62 515.327 979.041 513.907 979.041 512.157C979.041 510.406 977.62 508.987 975.867 508.987C974.114 508.987 972.693 510.406 972.693 512.157C972.693 513.907 974.114 515.327 975.867 515.327Z" fill="#1A578F"/>
<path d="M1089.92 28.0385C1091.67 28.0385 1093.09 26.6194 1093.09 24.8689C1093.09 23.1183 1091.67 21.6992 1089.92 21.6992C1088.17 21.6992 1086.75 23.1183 1086.75 24.8689C1086.75 26.6194 1088.17 28.0385 1089.92 28.0385Z" fill="#1A578F"/>
<path d="M1047.7 122.64C1049.45 122.64 1050.87 121.221 1050.87 119.47C1050.87 117.72 1049.45 116.301 1047.7 116.301C1045.94 116.301 1044.52 117.72 1044.52 119.47C1044.52 121.221 1045.94 122.64 1047.7 122.64Z" fill="#1A578F"/>
<path d="M1073.82 231.168C1075.57 231.168 1077 229.749 1077 227.999C1077 226.248 1075.57 224.829 1073.82 224.829C1072.07 224.829 1070.65 226.248 1070.65 227.999C1070.65 229.749 1072.07 231.168 1073.82 231.168Z" fill="#1A578F"/>
<path d="M1089.16 301.794C1090.92 301.794 1092.34 300.375 1092.34 298.625C1092.34 296.874 1090.92 295.455 1089.16 295.455C1087.41 295.455 1085.99 296.874 1085.99 298.625C1085.99 300.375 1087.41 301.794 1089.16 301.794Z" fill="#1A578F"/>
<path d="M1057.94 517.742C1059.7 517.742 1061.12 516.323 1061.12 514.572C1061.12 512.821 1059.7 511.402 1057.94 511.402C1056.19 511.402 1054.77 512.821 1054.77 514.572C1054.77 516.323 1056.19 517.742 1057.94 517.742Z" fill="#1A578F"/>
<defs>
<radialGradient id="paint0_radial_50_2241" cx="0" cy="0" r="1" gradientUnits="userSpaceOnUse" gradientTransform="translate(388.538 424.89) scale(15.868 15.8482)">
<stop offset="0.1" stop-color="white"/>
<stop offset="0.2" stop-color="white"/>
<stop offset="1" stop-color="#1735B3" stop-opacity="0"/>
</radialGradient>
<radialGradient id="paint1_radial_50_2241" cx="0" cy="0" r="1" gradientUnits="userSpaceOnUse" gradientTransform="translate(421.284 494.597) scale(15.8681 15.8482)">
<stop offset="0.1" stop-color="white"/>
<stop offset="0.2" stop-color="white"/>
<stop offset="1" stop-color="#1735B3" stop-opacity="0"/>
</radialGradient>
<radialGradient id="paint2_radial_50_2241" cx="0" cy="0" r="1" gradientUnits="userSpaceOnUse" gradientTransform="translate(798.132 321.148) scale(15.8681 15.8482)">
<stop offset="0.1" stop-color="white"/>
<stop offset="0.2" stop-color="white"/>
<stop offset="1" stop-color="#1735B3" stop-opacity="0"/>
</radialGradient>
<radialGradient id="paint3_radial_50_2241" cx="0" cy="0" r="1" gradientUnits="userSpaceOnUse" gradientTransform="translate(785.628 494.388) scale(15.8681 15.8482)">
<stop offset="0.1" stop-color="white"/>
<stop offset="0.2" stop-color="white"/>
<stop offset="1" stop-color="#1735B3" stop-opacity="0"/>
</radialGradient>
<radialGradient id="paint4_radial_50_2241" cx="0" cy="0" r="1" gradientUnits="userSpaceOnUse" gradientTransform="translate(882.27 127.578) scale(15.8681 15.8482)">
<stop offset="0.1" stop-color="white"/>
<stop offset="0.2" stop-color="white"/>
<stop offset="1" stop-color="#1735B3" stop-opacity="0"/>
</radialGradient>
</defs>
</svg>
